<?xml version="1.0" standalone="no"?>
<!DOCTYPE svg PUBLIC "-//W3C//DTD SVG 20010904//EN"
 "http://www.w3.org/TR/2001/REC-SVG-20010904/DTD/svg10.dtd">
<svg version="1.0" xmlns="http://www.w3.org/2000/svg"
 width="1024.000000pt" height="1024.000000pt" viewBox="0 0 1024.000000 1024.000000"
 preserveAspectRatio="xMidYMid meet">

<g transform="translate(0.000000,1024.000000) scale(0.100000,-0.100000)"
fill="#000000" stroke="none">
<path d="M4810 8314 c-558 -76 -1067 -387 -1405 -859 -225 -315 -380 -720
-425 -1110 -39 -345 40 -766 205 -1095 69 -137 106 -195 218 -343 l90 -118 51
5 c28 3 103 11 166 17 147 13 351 44 510 75 141 29 397 91 417 103 18 10 -132
80 -252 120 -219 71 -447 101 -766 101 -189 0 -218 2 -230 17 -12 13 -14 146
-14 772 l0 756 45 23 c88 44 80 111 80 -666 0 -579 2 -691 14 -708 13 -17 25
-19 148 -16 199 5 463 -39 670 -109 137 -47 320 -140 437 -222 l35 -24 70 20
c39 12 73 23 76 25 10 8 -137 134 -230 197 -264 178 -627 281 -964 274 -51 -1
-98 1 -104 5 -9 5 -12 204 -12 781 0 755 0 775 19 785 45 23 340 6 523 -30
348 -71 674 -259 811 -469 82 -124 77 -69 77 -831 0 -374 3 -680 7 -680 4 0
27 7 50 16 l43 17 0 672 0 672 37 74 c68 138 262 304 465 399 114 53 270 104
397 130 181 37 463 46 500 16 12 -9 13 -112 8 -678 -3 -368 -3 -668 0 -668 3
0 36 17 74 38 l69 37 0 483 c0 327 3 482 10 482 16 0 94 -41 102 -54 4 -6 8
-194 8 -418 0 -225 3 -408 6 -408 13 0 232 149 323 220 l94 73 -7 113 c-22
401 -182 823 -439 1164 -96 126 -300 328 -431 427 -285 214 -623 350 -991 398
-145 19 -441 18 -585 -1z m640 -410 c31 -112 55 -141 145 -178 56 -23 83 -46
53 -46 -7 0 -40 -13 -74 -29 -70 -33 -98 -71 -124 -165 -9 -33 -22 -62 -28
-64 -6 -2 -16 22 -22 55 -24 112 -68 164 -167 195 -24 7 -43 16 -43 19 0 4 29
20 63 37 35 16 76 42 90 58 26 28 67 130 67 167 0 38 24 9 40 -49z m-906 -97
c36 -26 -4 -84 -41 -61 -25 16 -28 45 -7 61 10 7 21 13 24 13 3 0 14 -6 24
-13z m1771 -187 c9 -28 -13 -52 -43 -48 -33 4 -50 31 -33 52 20 24 68 21 76
-4z m-2331 -182 c8 -14 7 -21 -6 -34 -30 -30 -75 9 -48 42 16 18 39 15 54 -8z
m828 -89 c2 -18 17 -32 46 -45 2 -1 -8 -13 -22 -27 -14 -15 -26 -33 -26 -42 0
-25 -15 -17 -27 15 -6 17 -21 34 -33 38 -21 8 -21 8 4 20 14 6 28 23 32 37 8
31 21 33 26 4z"/>
<path d="M3182 8148 c-30 -30 -3 -83 39 -76 32 5 45 31 31 62 -13 28 -49 35
-70 14z"/>
<path d="M7012 8098 c-7 -7 -12 -21 -12 -33 0 -12 5 -26 12 -33 7 -7 21 -12
33 -12 12 0 26 5 33 12 7 7 12 21 12 33 0 12 -5 26 -12 33 -7 7 -21 12 -33 12
-12 0 -26 -5 -33 -12z"/>
<path d="M2546 7828 c-9 -50 -48 -93 -99 -111 -23 -9 -34 -16 -24 -16 57 -3
115 -59 129 -126 3 -15 8 -9 16 21 14 49 44 79 97 97 l40 14 -40 13 c-55 17
-83 46 -99 99 l-13 45 -7 -36z"/>
<path d="M7095 7660 c-49 -5 -120 -15 -158 -21 l-67 -11 19 -27 c38 -53 42
-54 145 -42 137 16 390 14 514 -5 265 -39 421 -126 499 -277 23 -45 27 -64 28
-142 0 -73 -5 -105 -28 -172 -53 -153 -173 -328 -351 -512 -350 -359 -767
-651 -1336 -937 -841 -421 -1754 -704 -2580 -799 -580 -66 -1076 -28 -1417
110 -392 158 -500 496 -277 866 128 212 315 391 628 601 l118 80 -5 35 c-4 20
-8 38 -11 40 -8 8 -175 -100 -309 -200 -143 -106 -359 -317 -445 -435 -81
-110 -156 -261 -177 -357 -13 -56 -16 -104 -13 -174 19 -354 317 -578 893
-672 187 -30 615 -38 845 -15 225 23 481 61 686 101 1116 221 2389 784 3163
1398 149 118 413 380 494 489 364 490 300 867 -173 1016 -175 56 -477 83 -685
62z"/>
<path d="M7591 7047 c-10 -31 -22 -43 -54 -57 -40 -18 -40 -19 -15 -25 31 -8
63 -40 73 -74 7 -22 8 -21 25 17 13 29 27 43 53 53 l35 12 -41 21 c-30 15 -44
31 -52 56 l-12 35 -12 -38z"/>
<path d="M2188 6835 c-3 -6 -9 -24 -12 -41 -9 -39 -39 -68 -91 -84 l-40 -13
40 -14 c52 -18 83 -49 91 -90 8 -40 24 -54 24 -20 0 40 41 90 89 108 l43 16
-46 17 c-50 19 -75 48 -85 99 -4 17 -9 27 -13 22z"/>
<path d="M8086 6054 c-19 -18 -20 -28 -6 -55 19 -35 80 -18 80 22 0 21 -26 49
-45 49 -7 0 -21 -7 -29 -16z"/>
<path d="M7033 5661 l-183 -114 0 -152 c0 -106 -4 -156 -12 -167 -11 -14 -50
-17 -273 -21 -321 -6 -431 -23 -588 -93 -630 -281 -1305 -479 -1957 -574 -118
-17 -216 -32 -217 -34 -5 -5 172 -133 234 -170 178 -106 445 -207 663 -250
299 -60 549 -58 877 6 101 19 115 20 130 6 10 -8 43 -25 73 -38 44 -20 72 -24
145 -24 80 0 97 3 157 31 37 17 87 50 112 73 52 48 101 140 115 213 5 27 13
52 17 56 5 4 49 38 97 75 383 295 654 703 768 1157 16 67 29 124 27 128 -2 4
-85 -45 -185 -108z m-992 -926 c24 -9 61 -29 81 -45 36 -30 37 -30 80 -14 56
21 149 23 171 5 23 -19 22 -85 -3 -135 -11 -23 -40 -64 -65 -93 -27 -30 -45
-61 -45 -75 0 -86 -86 -203 -187 -253 -50 -25 -70 -29 -143 -30 -72 0 -94 4
-143 27 -55 26 -63 27 -127 18 -103 -15 -210 13 -210 55 0 42 57 125 109 161
45 31 58 14 26 -35 -32 -48 -42 -91 -24 -102 50 -32 269 16 417 90 178 89 332
243 308 307 -4 11 -18 14 -53 12 -48 -3 -48 -3 -45 -37 3 -30 -3 -41 -70 -105
-84 -83 -176 -140 -300 -187 -78 -29 -93 -31 -135 -23 l-48 9 -18 65 c-22 79
-16 144 19 217 32 67 120 148 182 167 63 19 169 20 223 1z m-825 -240 c7 -18
-13 -45 -33 -45 -19 0 -28 27 -13 45 16 19 39 19 46 0z m-445 -105 c42 -23 2
-88 -45 -71 -24 9 -33 46 -16 67 15 17 34 18 61 4z"/>
<path d="M7835 5656 c-123 -57 -288 -208 -387 -354 l-53 -77 0 -95 c0 -145 8
-148 88 -35 99 139 255 315 279 315 14 0 18 -5 14 -16 -16 -42 -181 -259 -261
-343 -126 -133 -255 -279 -255 -289 0 -14 23 -32 41 -32 9 0 50 38 90 85 66
74 80 86 129 101 69 20 140 55 187 91 l37 28 -49 5 -48 5 56 38 c80 55 130
114 176 206 74 145 115 343 79 379 -19 19 -68 14 -123 -12z"/>
<path d="M2485 5636 c-27 -7 -61 -18 -73 -25 -46 -24 -104 -85 -130 -135 -23
-44 -27 -63 -27 -141 0 -78 4 -97 27 -140 56 -106 154 -165 274 -165 39 0 92
6 118 14 l48 15 88 -85 c50 -48 96 -84 107 -84 23 0 53 29 53 51 0 8 -36 50
-80 94 -44 44 -80 85 -80 91 0 6 12 37 26 68 23 51 26 67 22 149 -2 73 -8 102
-28 140 -62 122 -210 188 -345 153z m176 -112 c26 -15 61 -45 76 -67 25 -36
28 -49 28 -122 0 -72 -3 -86 -28 -123 -36 -55 -108 -92 -179 -92 -185 0 -284
212 -165 356 63 76 178 97 268 48z"/>
<path d="M6055 5546 c-225 -43 -430 -127 -606 -247 -136 -94 -141 -106 -26
-64 238 86 767 313 767 330 0 6 5 7 -135 -19z"/>
<path d="M6695 5465 c-11 -7 -45 -26 -75 -43 l-55 -32 72 0 c68 0 73 1 79 24
3 13 4 33 2 44 -3 17 -6 18 -23 7z"/>
<path d="M7926 4548 c-9 -49 -34 -78 -85 -98 l-43 -16 40 -12 c47 -14 67 -35
85 -87 l14 -39 14 44 c13 39 22 49 68 72 l52 27 -39 10 c-48 13 -70 37 -86 92
l-13 43 -7 -36z"/>
<path d="M6922 4318 c-30 -30 -3 -82 40 -76 29 4 47 50 28 72 -15 19 -51 21
-68 4z"/>
<path d="M2478 4189 c-22 -12 -23 -52 -3 -69 8 -7 25 -10 40 -6 20 5 25 13 25
36 0 19 -7 33 -19 40 -23 12 -22 12 -43 -1z"/>
<path d="M3581 4134 c-9 -26 -23 -41 -51 -53 l-39 -17 35 -13 c27 -10 40 -23
53 -53 l16 -40 14 37 c9 27 23 41 51 54 l39 17 -35 13 c-26 9 -41 23 -53 51
l-17 39 -13 -35z"/>
<path d="M7424 3926 c-8 -21 3 -36 27 -36 15 0 20 6 17 22 -4 27 -35 37 -44
14z"/>
<path d="M6103 3642 c-112 -40 -158 -104 -169 -235 l-7 -77 -38 0 c-54 0 -69
-20 -69 -89 0 -67 9 -78 65 -83 l40 -3 3 -304 c1 -204 6 -309 13 -318 18 -20
185 -18 193 3 3 9 6 145 6 304 0 159 3 295 6 304 5 13 24 16 99 16 64 0 96 4
102 13 11 18 3 141 -11 149 -6 4 -53 8 -105 8 l-94 0 6 53 c9 72 29 87 121 87
43 0 77 5 84 12 7 7 12 39 12 75 0 55 -3 64 -25 79 -39 25 -168 29 -232 6z"/>
<path d="M2495 3640 c-57 -23 -84 -96 -55 -149 15 -30 69 -61 103 -61 36 0 81
23 101 52 19 27 20 96 3 118 -35 45 -100 62 -152 40z"/>
<path d="M1685 3618 c-3 -7 -4 -256 -3 -553 l3 -540 327 -3 328 -2 5 23 c3 12
5 54 3 92 l-3 70 -210 5 c-115 3 -216 9 -222 13 -10 6 -13 106 -13 442 0 238
-3 440 -6 449 -5 13 -24 16 -105 16 -71 0 -101 -4 -104 -12z"/>
<path d="M2815 3618 c-3 -7 -4 -256 -3 -553 l3 -540 83 -3 c96 -3 112 4 112
56 l0 35 19 -25 c11 -13 43 -37 73 -53 49 -28 61 -30 153 -30 89 0 107 3 162
29 309 143 306 641 -5 783 -110 51 -272 32 -358 -41 l-39 -33 3 179 c3 129 0
183 -8 193 -16 20 -188 21 -195 3z m454 -458 c55 -15 99 -52 128 -105 23 -42
27 -62 27 -130 0 -118 -34 -184 -116 -226 -75 -38 -186 -15 -240 49 -36 43
-52 96 -53 172 0 115 52 202 140 234 49 18 70 19 114 6z"/>
<path d="M4120 3337 c-51 -14 -107 -46 -135 -77 -25 -28 -30 -25 -33 17 -1 20
-8 41 -15 45 -6 4 -49 8 -94 8 -71 0 -84 -3 -93 -19 -15 -30 -14 -763 2 -779
16 -16 180 -16 196 0 9 9 12 70 12 213 0 150 4 214 15 252 28 93 74 130 178
141 l62 7 0 100 c0 99 0 100 -25 102 -14 1 -45 -4 -70 -10z"/>
<path d="M4596 3339 c-108 -18 -234 -106 -291 -203 -95 -162 -61 -393 77 -522
75 -70 164 -107 269 -112 189 -9 337 75 416 236 37 73 38 80 38 181 0 98 -2
111 -32 174 -60 125 -163 211 -294 242 -70 16 -108 17 -183 4z m201 -215 c64
-52 88 -106 88 -199 0 -100 -29 -164 -94 -210 -37 -26 -51 -30 -111 -30 -60 0
-74 4 -111 30 -111 79 -130 273 -37 378 50 55 82 69 160 65 57 -3 73 -8 105
-34z"/>
<path d="M5404 3340 c-97 -20 -173 -75 -205 -145 -27 -59 -25 -150 4 -206 28
-54 101 -100 202 -131 161 -48 195 -75 170 -134 -18 -44 -59 -57 -154 -52 -65
4 -88 10 -135 37 -32 18 -67 31 -79 29 -21 -3 -22 -8 -22 -88 l0 -85 45 -22
c64 -32 151 -46 255 -41 111 6 179 33 233 92 50 55 65 101 60 186 -3 59 -8 75
-34 107 -46 57 -98 84 -259 133 -85 26 -105 43 -105 86 0 74 122 93 253 40 37
-15 75 -25 82 -22 11 4 15 24 15 80 0 67 -2 77 -23 90 -63 42 -216 65 -303 46z"/>
<path d="M6690 3340 c-166 -35 -295 -176 -320 -349 -39 -275 148 -491 425
-491 119 0 261 46 310 100 14 16 14 22 -9 74 -22 50 -28 56 -55 56 -16 0 -33
-4 -36 -10 -11 -19 -137 -50 -201 -50 -121 0 -196 54 -218 157 l-7 32 278 1
c328 0 308 -7 299 111 -18 223 -147 359 -354 373 -37 3 -87 1 -112 -4z m179
-180 c44 -22 76 -68 86 -122 l7 -38 -186 0 c-207 0 -200 -3 -171 67 19 45 40
70 80 94 41 26 133 25 184 -1z"/>
<path d="M7657 3339 c-52 -12 -107 -42 -136 -73 -32 -34 -41 -33 -41 7 0 50
-14 57 -107 57 -71 0 -84 -3 -93 -19 -6 -13 -10 -153 -10 -386 0 -233 4 -373
10 -386 9 -17 22 -19 100 -19 78 0 91 2 100 19 6 12 10 99 10 214 0 218 10
274 61 332 33 37 79 55 146 55 52 0 55 9 51 125 -3 77 -4 80 -28 82 -14 1 -42
-3 -63 -8z"/>
<path d="M8034 3336 c-61 -14 -157 -57 -168 -75 -12 -18 6 -153 21 -158 8 -3
46 10 86 28 62 29 83 34 147 34 119 0 180 -49 180 -144 0 -37 -2 -42 -17 -36
-10 4 -68 10 -130 13 -94 4 -122 1 -180 -16 -79 -25 -134 -66 -166 -125 -31
-59 -30 -174 1 -235 45 -85 140 -128 265 -120 84 6 162 36 203 80 l29 30 5
-44 5 -43 90 0 90 0 0 305 0 305 -29 53 c-34 61 -87 103 -165 132 -70 27 -188
34 -267 16z m244 -472 c53 -11 9 -137 -62 -179 -87 -51 -208 -24 -221 49 -8
40 14 94 47 115 41 26 150 33 236 15z"/>
<path d="M2456 3314 c-14 -13 -16 -63 -16 -393 0 -280 3 -380 12 -389 16 -16
180 -16 196 0 16 16 17 749 2 779 -9 16 -22 19 -95 19 -63 0 -87 -4 -99 -16z"/>
</g>
</svg>
