<?xml version="1.0" standalone="no"?>
<!DOCTYPE svg PUBLIC "-//W3C//DTD SVG 20010904//EN"
 "http://www.w3.org/TR/2001/REC-SVG-20010904/DTD/svg10.dtd">
<svg version="1.0" xmlns="http://www.w3.org/2000/svg"
 width="1024.000000pt" height="1024.000000pt" viewBox="0 0 1024.000000 1024.000000"
 preserveAspectRatio="xMidYMid meet">

<g transform="translate(0.000000,1024.000000) scale(0.100000,-0.100000)"
fill="#000000" stroke="none">
<path d="M0 5120 l0 -5120 5120 0 5120 0 0 5120 0 5120 -5120 0 -5120 0 0
-5120z m5395 3195 c368 -48 706 -184 991 -398 131 -99 335 -301 431 -427 257
-341 417 -763 439 -1164 l7 -113 -94 -73 c-91 -71 -310 -220 -323 -220 -3 0
-6 183 -6 408 0 224 -4 412 -8 418 -8 13 -86 54 -102 54 -7 0 -10 -155 -10
-482 l0 -483 -69 -37 c-38 -21 -71 -38 -74 -38 -3 0 -3 300 0 668 5 566 4 669
-8 678 -37 30 -319 21 -500 -16 -127 -26 -283 -77 -397 -130 -203 -95 -397
-261 -465 -399 l-37 -74 0 -672 0 -672 -43 -17 c-23 -9 -46 -16 -50 -16 -4 0
-7 306 -7 680 0 762 5 707 -77 831 -137 210 -463 398 -811 469 -183 36 -478
53 -523 30 -19 -10 -19 -30 -19 -785 0 -577 3 -776 12 -781 6 -4 53 -6 104 -5
337 7 700 -96 964 -274 93 -63 240 -189 230 -197 -3 -2 -37 -13 -76 -25 l-70
-20 -35 24 c-117 82 -300 175 -437 222 -207 70 -471 114 -670 109 -123 -3
-135 -1 -148 16 -12 17 -14 129 -14 708 0 777 8 710 -80 666 l-45 -23 0 -756
c0 -626 2 -759 14 -772 12 -15 41 -17 230 -17 319 0 547 -30 766 -101 120 -40
270 -110 252 -120 -20 -12 -276 -74 -417 -103 -159 -31 -363 -62 -510 -75 -63
-6 -138 -14 -166 -17 l-51 -5 -90 118 c-112 148 -149 206 -218 343 -165 329
-244 750 -205 1095 45 390 200 795 425 1110 338 472 847 783 1405 859 144 19
440 20 585 1z m-2143 -181 c14 -31 1 -57 -31 -62 -28 -4 -51 14 -51 42 0 50
62 65 82 20z m3826 -36 c7 -7 12 -21 12 -33 0 -12 -5 -26 -12 -33 -7 -7 -21
-12 -33 -12 -12 0 -26 5 -33 12 -7 7 -12 21 -12 33 0 12 5 26 12 33 7 7 21 12
33 12 12 0 26 -5 33 -12z m-4476 -345 c13 -11 41 -26 63 -33 l40 -13 -40 -14
c-53 -18 -83 -48 -97 -97 -8 -30 -13 -36 -16 -21 -14 67 -72 123 -129 126 -10
0 1 7 24 16 51 18 90 61 99 111 l7 36 13 -45 c7 -25 24 -54 36 -66z m4974
-108 c428 -64 649 -273 606 -574 -21 -145 -100 -316 -229 -489 -81 -109 -345
-371 -494 -489 -774 -614 -2047 -1177 -3163 -1398 -205 -40 -461 -78 -686
-101 -230 -23 -658 -15 -845 15 -576 94 -874 318 -893 672 -3 70 0 118 13 174
21 96 96 247 177 357 86 118 302 329 445 435 134 100 301 208 309 200 3 -2 7
-20 11 -40 l5 -35 -118 -80 c-313 -210 -500 -389 -628 -601 -223 -370 -115
-708 277 -866 406 -164 995 -185 1736 -64 1122 184 2441 735 3206 1338 208
165 454 403 558 542 86 115 153 231 184 322 23 67 28 99 28 172 -1 78 -5 97
-28 142 -78 151 -234 238 -499 277 -124 19 -377 21 -514 5 -103 -12 -107 -11
-145 42 l-19 27 67 11 c200 33 439 35 639 6z m91 -651 l41 -21 -35 -12 c-26
-10 -40 -24 -53 -53 -17 -38 -18 -39 -25 -17 -10 34 -42 66 -73 74 -25 6 -25
7 15 25 32 14 44 26 54 57 l12 38 12 -35 c8 -25 22 -41 52 -56z m-5444 -238
c9 -13 37 -32 63 -42 l46 -17 -43 -16 c-48 -18 -89 -68 -89 -108 0 -34 -16
-20 -24 20 -8 41 -39 72 -91 90 l-40 14 40 13 c52 16 82 45 91 84 10 48 18 54
25 19 3 -18 14 -43 22 -57z m5921 -702 c31 -31 13 -74 -31 -74 -21 0 -43 25
-43 49 0 14 29 41 45 41 7 0 21 -7 29 -16z m-953 -413 c-114 -454 -385 -862
-768 -1157 -48 -37 -92 -71 -97 -75 -4 -4 -12 -29 -17 -56 -14 -73 -63 -165
-115 -213 -25 -23 -75 -56 -112 -73 -60 -28 -77 -31 -157 -31 -73 0 -101 4
-145 24 -30 13 -63 30 -73 38 -15 14 -29 13 -130 -6 -328 -64 -578 -66 -877
-6 -218 43 -485 144 -663 250 -62 37 -239 165 -234 170 1 2 99 17 217 34 652
95 1327 293 1957 574 157 70 267 87 588 93 223 4 262 7 273 21 8 11 12 61 12
167 l0 152 183 114 c100 63 183 112 185 108 2 -4 -11 -61 -27 -128z m767 27
c36 -36 -5 -234 -79 -379 -46 -92 -96 -151 -176 -206 l-56 -38 48 -5 49 -5
-37 -28 c-47 -36 -118 -71 -187 -91 -49 -15 -63 -27 -129 -101 -40 -47 -81
-85 -90 -85 -18 0 -41 18 -41 32 0 10 129 156 255 289 80 84 245 301 261 343
4 11 0 16 -14 16 -24 0 -180 -176 -279 -315 -80 -113 -88 -110 -88 35 l0 95
53 77 c70 104 158 196 256 270 125 94 220 130 254 96z m-5273 -48 c59 -25 116
-79 145 -137 20 -38 26 -67 28 -140 4 -82 1 -98 -22 -149 -14 -31 -26 -62 -26
-68 0 -6 36 -47 80 -91 44 -44 80 -86 80 -94 0 -22 -30 -51 -53 -51 -11 0 -57
36 -107 84 l-88 85 -48 -15 c-159 -48 -320 14 -392 151 -23 43 -27 62 -27 140
0 78 4 97 27 141 26 50 84 111 130 135 74 40 191 44 273 9z m3505 -55 c0 -17
-529 -244 -767 -330 -115 -42 -110 -30 26 64 176 120 381 204 606 247 140 26
135 25 135 19z m526 -151 c-6 -23 -11 -24 -79 -24 l-72 0 55 32 c30 17 64 36
75 43 17 11 20 10 23 -7 2 -11 1 -31 -2 -44z m1260 -935 c9 -10 35 -24 56 -30
l39 -10 -52 -27 c-46 -23 -55 -33 -68 -72 l-14 -44 -14 39 c-18 52 -38 73 -85
87 l-40 12 43 16 c51 20 76 49 85 98 l7 36 13 -43 c7 -23 20 -51 30 -62z
m-986 -165 c10 -11 11 -23 4 -42 -17 -48 -84 -38 -84 12 0 43 53 63 80 30z
m-4469 -124 c12 -7 19 -21 19 -40 0 -23 -5 -31 -25 -36 -15 -4 -32 -1 -40 6
-20 17 -19 57 3 69 21 13 20 13 43 1z m1143 -111 l35 -13 -39 -17 c-28 -13
-42 -27 -51 -54 l-14 -37 -16 40 c-13 30 -26 43 -53 53 l-35 13 39 17 c28 12
42 27 51 53 l13 35 17 -39 c12 -28 27 -42 53 -51z m3804 -167 c3 -16 -2 -22
-17 -22 -24 0 -35 15 -27 36 9 23 40 13 44 -14z m-1133 -276 c22 -15 25 -24
25 -79 0 -36 -5 -68 -12 -75 -7 -7 -41 -12 -84 -12 -92 0 -112 -15 -121 -87
l-6 -53 94 0 c52 0 99 -4 105 -8 14 -8 22 -131 11 -149 -6 -9 -38 -13 -102
-13 -75 0 -94 -3 -99 -16 -3 -9 -6 -145 -6 -304 0 -159 -3 -295 -6 -304 -8
-21 -175 -23 -193 -3 -7 9 -12 114 -13 318 l-3 304 -40 3 c-56 5 -65 16 -65
83 0 69 15 89 69 89 l38 0 7 77 c11 131 57 195 169 235 64 23 193 19 232 -6z
m-3725 -3 c39 -27 49 -45 50 -88 0 -92 -97 -144 -177 -95 -39 23 -55 52 -55
97 0 36 30 78 67 93 34 14 89 11 115 -7z m-716 -19 c3 -9 6 -211 6 -449 0
-336 3 -436 13 -442 6 -4 107 -10 222 -13 l210 -5 3 -70 c2 -38 0 -80 -3 -92
l-5 -23 -328 2 -327 3 -3 540 c-1 297 0 546 3 553 3 8 33 12 104 12 81 0 100
-3 105 -16z m1116 1 c8 -10 11 -64 8 -193 l-3 -179 39 33 c86 73 248 92 358
41 126 -57 208 -173 230 -325 29 -197 -63 -383 -225 -458 -55 -26 -73 -29
-162 -29 -92 0 -104 2 -153 30 -30 16 -62 40 -73 53 l-19 25 0 -35 c0 -52 -16
-59 -112 -56 l-83 3 -3 540 c-1 297 0 546 3 553 7 18 179 17 195 -3z m1205
-370 l0 -100 -62 -7 c-104 -11 -150 -48 -178 -141 -11 -38 -15 -102 -15 -252
0 -143 -3 -204 -12 -213 -16 -16 -180 -16 -196 0 -16 16 -17 749 -2 779 9 16
22 19 93 19 45 0 88 -4 94 -8 7 -4 14 -25 15 -45 3 -42 8 -45 33 -17 43 47
148 92 205 87 25 -2 25 -3 25 -102z m564 90 c131 -31 234 -117 294 -242 30
-63 32 -76 32 -174 0 -101 -1 -108 -38 -181 -79 -161 -227 -245 -416 -236 -70
3 -99 10 -153 35 -121 57 -199 151 -233 278 -71 272 126 525 415 534 19 0 64
-6 99 -14z m863 -11 c83 -29 88 -35 88 -120 0 -56 -4 -76 -15 -80 -7 -3 -45 7
-82 22 -131 53 -253 34 -253 -40 0 -43 20 -60 105 -86 161 -49 213 -76 259
-133 26 -32 31 -48 34 -107 5 -85 -10 -131 -60 -186 -54 -59 -122 -86 -233
-92 -104 -5 -191 9 -255 41 l-45 22 0 85 c0 80 1 85 22 88 12 2 47 -11 79 -29
47 -27 70 -33 135 -37 95 -5 136 8 154 52 25 59 -9 86 -170 134 -158 48 -225
118 -225 236 1 128 81 216 224 246 55 12 184 3 238 -16z m1282 -4 c135 -51
218 -175 232 -349 9 -118 29 -111 -299 -111 l-278 -1 7 -32 c22 -103 97 -157
218 -157 64 0 190 31 201 50 3 6 20 10 36 10 27 0 33 -6 55 -56 23 -52 23 -58
9 -74 -26 -29 -109 -69 -176 -85 -336 -79 -605 150 -559 476 25 173 154 314
320 349 63 13 170 4 234 -20z m824 -55 c4 -116 1 -125 -51 -125 -67 0 -113
-18 -146 -55 -51 -58 -61 -114 -61 -332 0 -115 -4 -202 -10 -214 -9 -17 -22
-19 -100 -19 -78 0 -91 2 -100 19 -6 13 -10 153 -10 386 0 233 4 373 10 386 9
16 22 19 93 19 93 0 107 -7 107 -57 0 -40 9 -41 41 -7 42 46 139 85 199 81 24
-2 25 -5 28 -82z m553 55 c78 -29 131 -71 165 -132 l29 -53 0 -305 0 -305 -90
0 -90 0 -5 43 -5 44 -29 -30 c-41 -44 -119 -74 -203 -80 -125 -8 -220 35 -265
120 -31 61 -32 176 -1 235 32 59 87 100 166 125 58 17 86 20 180 16 62 -3 120
-9 130 -13 15 -6 17 -1 17 36 0 95 -61 144 -180 144 -64 0 -85 -5 -147 -34
-40 -18 -78 -31 -86 -28 -15 5 -33 140 -21 158 11 18 107 61 168 75 79 18 197
11 267 -16z m-5651 -9 c15 -30 14 -763 -2 -779 -16 -16 -180 -16 -196 0 -9 9
-12 109 -12 389 0 330 2 380 16 393 12 12 36 16 99 16 73 0 86 -3 95 -19z"/>
<path d="M5410 7953 c0 -37 -41 -139 -67 -167 -14 -16 -55 -42 -90 -58 -34
-17 -63 -33 -63 -37 0 -3 19 -12 43 -19 99 -31 143 -83 167 -195 6 -33 16 -57
22 -55 6 2 19 31 28 64 26 94 54 132 124 165 34 16 67 29 74 29 30 0 3 23 -53
46 -90 37 -114 66 -145 178 -16 58 -40 87 -40 49z"/>
<path d="M4496 7807 c-36 -26 4 -84 42 -61 24 16 27 45 6 61 -10 7 -21 13 -24
13 -3 0 -14 -6 -24 -13z"/>
<path d="M6239 7624 c-17 -21 0 -48 33 -52 30 -4 52 20 43 48 -8 25 -56 28
-76 4z"/>
<path d="M3930 7446 c-27 -33 18 -72 48 -42 13 13 14 20 6 34 -15 23 -38 26
-54 8z"/>
<path d="M4786 7345 c-4 -14 -18 -31 -32 -37 -25 -12 -25 -12 -4 -20 12 -4 27
-21 33 -38 12 -32 27 -40 27 -15 0 9 12 27 26 42 14 14 24 26 22 27 -29 13
-44 27 -46 45 -5 29 -18 27 -26 -4z"/>
<path d="M5818 4734 c-62 -19 -150 -100 -182 -167 -35 -73 -41 -138 -19 -217
l18 -65 48 -9 c42 -8 57 -6 135 23 124 47 216 104 300 187 67 64 73 75 70 105
-3 34 -3 34 45 37 35 2 49 -1 53 -12 24 -64 -130 -218 -308 -307 -148 -74
-367 -122 -417 -90 -18 11 -8 54 24 102 32 49 19 66 -26 35 -52 -36 -109 -119
-109 -161 0 -42 107 -70 210 -55 64 9 72 8 127 -18 49 -23 71 -27 143 -27 73
1 93 5 143 30 101 50 187 167 187 253 0 14 18 45 45 75 25 29 54 70 65 93 25
50 26 116 3 135 -22 18 -115 16 -171 -5 -43 -16 -44 -16 -80 14 -20 16 -57 36
-81 45 -54 19 -160 18 -223 -1z"/>
<path d="M5170 4495 c-15 -18 -6 -45 13 -45 20 0 40 27 33 45 -7 19 -30 19
-46 0z"/>
<path d="M4710 4386 c-17 -21 -8 -58 16 -67 47 -17 87 48 45 71 -27 14 -46 13
-61 -4z"/>
<path d="M2464 5531 c-70 -32 -124 -117 -124 -196 0 -79 51 -159 123 -194 94
-46 219 -13 274 71 25 37 28 51 28 123 0 73 -3 86 -28 122 -58 84 -179 117
-273 74z"/>
<path d="M3155 3154 c-88 -32 -140 -119 -140 -234 1 -76 17 -129 53 -172 54
-64 165 -87 240 -49 82 42 116 108 116 226 0 68 -4 88 -27 130 -29 53 -73 90
-128 105 -44 13 -65 12 -114 -6z"/>
<path d="M4595 3145 c-150 -78 -165 -331 -26 -430 37 -26 51 -30 111 -30 60 0
74 4 111 30 65 46 94 110 94 210 0 93 -24 147 -88 199 -32 26 -48 31 -105 34
-47 2 -76 -2 -97 -13z"/>
<path d="M6685 3161 c-40 -24 -61 -49 -80 -94 -29 -70 -36 -67 171 -67 l186 0
-7 38 c-17 91 -82 142 -182 142 -39 0 -68 -6 -88 -19z"/>
<path d="M8115 2870 c-64 -9 -91 -26 -111 -68 -38 -80 13 -142 115 -142 73 0
131 34 160 93 29 59 28 105 -1 111 -52 11 -116 13 -163 6z"/>
</g>
</svg>
